<svg xmlns="http://www.w3.org/2000/svg" id="Handshake-Deal-Smartphone-Agreement-Mobile_Phone" width="50.44" height="50.44" viewBox="0 0 50.44 50.44">
    <defs>
        <style>
            .cls-1,.cls-2{fill:#fff}.cls-2{stroke:#fff;stroke-width:.5px}
        </style>
    </defs>
    <path id="Path_22" d="M48.236 5.363H30.5A4.211 4.211 0 0 0 26.379 2H6.2A4.208 4.208 0 0 0 2 6.2v38.67a4.208 4.208 0 0 0 4.2 4.2h17.741a4.211 4.211 0 0 0 4.119 3.37h20.176a4.208 4.208 0 0 0 4.2-4.2V9.566a4.208 4.208 0 0 0-4.2-4.2zM33.1 7.044h10.092v1.681H33.1zM11.247 3.681h10.088v1.682H11.247zm39.511 44.555a2.522 2.522 0 0 1-2.522 2.522H28.06a2.522 2.522 0 0 1-2.522-2.522v-4.2h-1.681V47.4H6.2a2.522 2.522 0 0 1-2.522-2.522V6.2A2.522 2.522 0 0 1 6.2 3.681h3.366v1.682a1.681 1.681 0 0 0 1.681 1.681h10.088a1.681 1.681 0 0 0 1.681-1.681V3.681h3.363a2.522 2.522 0 0 1 2.367 1.681h-.686a4.208 4.208 0 0 0-4.2 4.2v6.725h1.681V9.566a2.522 2.522 0 0 1 2.519-2.522h3.363v1.681a1.681 1.681 0 0 0 1.677 1.682h10.092a1.681 1.681 0 0 0 1.681-1.681V7.044h3.363a2.522 2.522 0 0 1 2.522 2.522z" class="cls-1" transform="translate(-2 -2)"/>
    <path id="Path_23" d="M40.454 38.463a2.512 2.512 0 0 0 1.652-4.292l-.889-.889.6-.594c.005-.005.007-.013.012-.018l2.363-2.363a.841.841 0 0 0 0-1.189l-8.323-8.323a.841.841 0 0 0-1.189 0l-2.2 2.2-1.288.252-2.456-2.456a.841.841 0 0 0-.594-.242h-3.224l-2.131-2.131a.841.841 0 0 0-1.189 0l-8.323 8.323a.841.841 0 0 0 0 1.189l6.053 6.053a2.5 2.5 0 0 0 2.139 3.589 2.484 2.484 0 0 0 2.377 2.379 2.482 2.482 0 0 0 2.378 2.372 2.517 2.517 0 0 0 4.287 1.651l.894.894a2.512 2.512 0 0 0 4.297-1.654 2.482 2.482 0 0 0 2.377-2.378 2.484 2.484 0 0 0 2.378-2.377zm.462-1.915a.857.857 0 0 1-1.188 0l-1.188-1.189a.841.841 0 1 1 1.189-1.191l1.186 1.191a.841.841 0 0 1 0 1.189zM35.27 22.579l7.13 7.134-1.185 1.187-7.133-7.134zM22.192 20.2l1.189 1.189-7.133 7.133-1.19-1.189zm2.725 2.029h2.871l6.589 6.59a.841.841 0 1 1-1.189 1.189l-3.566-3.566a.841.841 0 0 0-1.189 0 2.522 2.522 0 0 1-3.567 0l-1.186 1.189a4.18 4.18 0 0 0 1.035.745l-4.305 4.308-2.974-2.972zm3.807 20.8a.835.835 0 0 1-.6-1.418l.012-.009 2.376-2.374-1.187-1.192-2.383 2.377-.008.009a.841.841 0 0 1-1.177-1.2l2.379-2.378-1.189-1.189-2.377 2.38a.858.858 0 0 1-1.189 0 .841.841 0 0 1 0-1.189l2.377-2.377-1.188-1.189-2.377 2.377A.841.841 0 1 1 21 34.469l5.62-5.623a4.188 4.188 0 0 0 2.348-.679L32 31.2a2.522 2.522 0 1 0 3.567-3.566l-2.947-2.953 7.41 7.411-.261.261a2.566 2.566 0 0 0-2.415.627 2.5 2.5 0 0 0-.726 1.654 2.483 2.483 0 0 0-2.377 2.377 2.486 2.486 0 0 0-2.38 2.4 2.457 2.457 0 0 0-2.3 3.127l-.246.246a.835.835 0 0 1-.6.242zm5.059.653a.841.841 0 0 1-1.19 0l-1.189-1.191a.841.841 0 0 1 1.188-1.191l1.192 1.187a.841.841 0 0 1 0 1.189zm2.378-2.382a.841.841 0 0 1-1.189 0l-1.189-1.189a.841.841 0 1 1 1.189-1.19l1.189 1.189a.841.841 0 0 1 0 1.19zm2.378-2.378a.841.841 0 0 1-1.19 0l-1.189-1.189a.841.841 0 1 1 1.189-1.189l1.189 1.189a.841.841 0 0 1 0 1.189z" class="cls-1" transform="translate(-3.757 -4.577)"/>
    <g id="Icon_ionic-ios-close-circle-outline" transform="translate(4.676 31.395)">
        <path id="Path_35" d="M16.6 15.978l-1.436-1.436 1.436-1.436a.435.435 0 1 0-.616-.616l-1.436 1.436-1.439-1.436a.435.435 0 0 0-.616.616l1.436 1.436-1.436 1.436a.421.421 0 0 0 0 .616.433.433 0 0 0 .616 0l1.436-1.436 1.436 1.436a.437.437 0 0 0 .616 0 .433.433 0 0 0 .003-.616z" class="cls-2" transform="translate(-8.878 -8.875)"/>
        <path id="Path_36" d="M9.042 4.138a4.9 4.9 0 1 1-3.468 1.436 4.872 4.872 0 0 1 3.468-1.436m0-.763a5.667 5.667 0 1 0 5.668 5.667 5.666 5.666 0 0 0-5.668-5.667z" class="cls-2" transform="translate(-3.375 -3.375)"/>
    </g>
    <g id="Icon_ionic-ios-checkmark-circle-outline" transform="translate(35.308 9.538)">
        <path id="Path_37" d="M16.345 12.739l-.486-.5a.1.1 0 0 0-.077-.033.1.1 0 0 0-.077.033l-3.366 3.391-1.225-1.225a.107.107 0 0 0-.155 0l-.491.491a.11.11 0 0 0 0 .157l1.545 1.547a.489.489 0 0 0 .323.157.512.512 0 0 0 .32-.152l3.692-3.705a.118.118 0 0 0-.003-.161z" class="cls-2" transform="translate(-7.664 -8.741)"/>
        <path id="Path_38" d="M9.114 4.148A4.965 4.965 0 1 1 5.6 5.6a4.934 4.934 0 0 1 3.514-1.452m0-.773a5.739 5.739 0 1 0 5.739 5.739 5.739 5.739 0 0 0-5.739-5.739z" class="cls-2" transform="translate(-3.375 -3.375)"/>
    </g>
</svg>
