<?xml version="1.0" encoding="UTF-8"?>
<svg xmlns="http://www.w3.org/2000/svg" xmlns:xlink="http://www.w3.org/1999/xlink" width="384pt" height="384pt" viewBox="0 0 384 384" version="1.1">
<g id="surface12701168">
<path style="fill-rule:nonzero;fill:rgb(0%,0%,0%);fill-opacity:1;stroke-width:1;stroke-linecap:butt;stroke-linejoin:round;stroke:rgb(80.000001%,80.000001%,80.000001%);stroke-opacity:1;stroke-miterlimit:10;" d="M 133.650064 21.37519 L 119.399798 35.625455 L 35.625455 35.625455 L 35.625455 135.375566 L 135.389566 135.375566 L 135.375566 80.100005 L 149.625831 65.849739 L 149.625831 135.375566 C 149.625831 143.233074 143.233074 149.625831 135.375566 149.625831 L 35.625455 149.625831 C 27.766197 149.625831 21.37519 143.233074 21.37519 135.375566 L 21.37519 35.625455 C 21.37519 27.766197 27.766197 21.37519 35.625455 21.37519 Z M 161.788345 33.537703 L 78.374503 116.949795 L 44.837466 83.412758 L 54.912227 73.337997 L 78.374503 96.800273 L 151.711834 23.462942 Z M 161.788345 33.537703 " transform="matrix(2.23214,0,0,2.23214,1.158669,1.158669)"/>
<path style=" stroke:none;fill-rule:nonzero;fill:rgb(96.078432%,73.725492%,25.490198%);fill-opacity:1;" d="M 80.679688 48.871094 C 63.136719 48.871094 48.871094 63.136719 48.871094 80.679688 L 48.871094 303.335938 C 48.871094 320.875 63.136719 335.144531 80.679688 335.144531 L 303.335938 335.144531 C 320.875 335.144531 335.144531 320.875 335.144531 303.335938 L 335.144531 148.144531 L 303.335938 179.953125 L 303.367188 303.335938 L 80.679688 303.335938 L 80.679688 80.679688 L 267.675781 80.679688 L 299.484375 48.871094 Z M 339.800781 53.53125 L 176.101562 217.230469 L 123.730469 164.859375 L 101.242188 187.347656 L 176.101562 262.207031 L 362.292969 76.019531 Z M 339.800781 53.53125 "/>
</g>
</svg>
