<svg xmlns="http://www.w3.org/2000/svg" width="31.666" height="20.871" viewBox="0 0 31.666 20.871">
    <g>
        <path d="M0 92.657a2.225 2.225 0 0 1 .455-1.37l2.509-3.21a2.158 2.158 0 0 1 1.7-.806 2.092 2.092 0 0 1 1.11.311L8.219 89.1a2.232 2.232 0 0 0 1.124.274 2.038 2.038 0 0 0 .862-.169l2.4-1.16a2.886 2.886 0 0 1 1.25-.263 3.115 3.115 0 0 1 1.758.507l.28.2.952-.474a3.589 3.589 0 0 1 1.56-.321 3.733 3.733 0 0 1 1.432.263l1.632.7a3.346 3.346 0 0 0 2.214 0l1.633-.7a2.377 2.377 0 0 1 .932-.182 2.838 2.838 0 0 1 1.06.208 2.411 2.411 0 0 1 .895.616l2.974 3.33a1.931 1.931 0 0 1-.189 2.76l-2.774 2.367 1.316 1.373a1.96 1.96 0 0 1-.067 2.776l-.267.254a1.957 1.957 0 0 1-.87.471 1.938 1.938 0 0 1-.365 2.354l-.268.255a1.986 1.986 0 0 1-2.132.386 1.94 1.94 0 0 1-.545.95l-.268.255a1.982 1.982 0 0 1-2.455.211 1.947 1.947 0 0 1-.513.843l-.268.255a1.984 1.984 0 0 1-2.79-.066l-1.163-1.214-1.58 1.462a1.983 1.983 0 0 1-2.788-.1l-.252-.27a1.946 1.946 0 0 1-.442-.8l-.612.565a1.986 1.986 0 0 1-2.79-.1l-.251-.27a1.939 1.939 0 0 1-.5-1.084A1.932 1.932 0 0 1 6.4 105l-.252-.27a1.955 1.955 0 0 1-.526-1.336 2 2 0 0 1 .054-.44 1.955 1.955 0 0 1-1.183-.6l-.252-.27a1.963 1.963 0 0 1 .1-2.776l.472-.436-4.254-4.709A2.241 2.241 0 0 1 0 92.657zm27.831 8.269a.9.9 0 0 0 .619-.245l.267-.254a.893.893 0 0 0 .031-1.262l-2.7-2.812a.9.9 0 0 0-1.269-.03l-.266.254a1.689 1.689 0 0 0-.276.647.888.888 0 0 0 .159.5l2.909 3.031a.908.908 0 0 0 .526.171zm-2.152 2.805a.9.9 0 0 0 1.268.03l.268-.254a.9.9 0 0 0 .03-1.262s-3.592-3.74-3.623-3.776a.9.9 0 0 0-1.24-.006l-.268.255a.894.894 0 0 0-.03 1.262zm-2.944 1.59a.9.9 0 0 0 1.268.03l.268-.254a.887.887 0 0 0 .078-1.2l-2.5-2.611a.9.9 0 0 0-1.218.012l-.268.255a.893.893 0 0 0-.03 1.262zm-4.754-.276l1.519 1.585a.9.9 0 0 0 1.268.03l.268-.254a.893.893 0 0 0 .03-1.262l-1.517-1.584a.9.9 0 0 0-1.269-.03l-.268.254a.894.894 0 0 0-.029 1.262zm-13.188-4.3a.884.884 0 0 0 .239.607l.252.27a.9.9 0 0 0 1.268.046l4.239-3.92.733.785-4.537 4.2A.893.893 0 0 0 6.938 104l.251.27a.9.9 0 0 0 1.267.046l4.24-3.92.732.785-3.763 3.48a.892.892 0 0 0-.037 1.249l.252.27a.905.905 0 0 0 1.268.047l3.752-3.467.731.786-.014.013-1.877 1.741a.884.884 0 0 0-.016 1.222l.252.27a.9.9 0 0 0 1.266.046l1.638-1.516a1.933 1.933 0 0 1 .388-2.309l.268-.255a1.973 1.973 0 0 1 1.36-.54c.038 0 .076.009.113.011v-.027a3.747 3.747 0 0 1 .61-1.422l.268-.254a1.966 1.966 0 0 1 .993-.506 1.935 1.935 0 0 1 .493-2.072l.268-.255A1.977 1.977 0 0 1 23 97.147c.057 0 .113.011.169.017a1.955 1.955 0 0 1 .6-1.36l.267-.254a1.983 1.983 0 0 1 2.79.065l.636.664 2.818-2.4a.864.864 0 0 0 .084-1.235l-2.974-3.33a1.357 1.357 0 0 0-.5-.335 1.77 1.77 0 0 0-.653-.128 1.3 1.3 0 0 0-.508.1l-1.633.7a4.4 4.4 0 0 1-3.063 0l-1.632-.7a2.673 2.673 0 0 0-1.009-.176 2.561 2.561 0 0 0-1.078.208l-.436.217 1.664 1.17a1.922 1.922 0 0 1 .439 2.729l-.22.3a2.148 2.148 0 0 1-1.719.842 2.087 2.087 0 0 1-1.075-.293l-1-.6a1.639 1.639 0 0 0-.826-.2 1.721 1.721 0 0 0-.973.274l-2.753 1.974a27.5 27.5 0 0 0-2.164 1.766l-3.187 2.947a.888.888 0 0 0-.272.638zm-3.433-7.3l4.24 4.697 1.931-1.782A28.363 28.363 0 0 1 9.8 94.51l2.753-1.974a2.782 2.782 0 0 1 1.6-.476 2.71 2.71 0 0 1 1.383.355l.995.6a1.01 1.01 0 0 0 .519.139 1.073 1.073 0 0 0 .855-.408l.219-.3a.853.853 0 0 0-.2-1.214l-2.943-2.068a2.071 2.071 0 0 0-1.137-.31 1.823 1.823 0 0 0-.779.155l-2.4 1.16a3.1 3.1 0 0 1-1.333.277 3.277 3.277 0 0 1-1.694-.437L5.2 88.49a1.017 1.017 0 0 0-.539-.148 1.086 1.086 0 0 0-.849.393L1.3 91.945a1.168 1.168 0 0 0-.228.712 1.19 1.19 0 0 0 .286.79z" transform="translate(0 -87.27)"/>
    </g>
</svg>
