<svg xmlns="http://www.w3.org/2000/svg" id="Handshake-Project-Collaborate-Sign-Contract" width="50.718" height="50.44" viewBox="0 0 50.718 50.44">
    <defs>
        <style>
            .cls-1{fill:#fff}
        </style>
    </defs>
    <path id="Path_12" d="M38.989 48.236a2.522 2.522 0 0 1-2.522 2.522H6.2a2.522 2.522 0 0 1-2.522-2.522V6.2A2.522 2.522 0 0 1 6.2 3.681h26.06v4.2a2.522 2.522 0 0 0 2.522 2.522h4.2V28.06h1.688V9.566a.841.841 0 0 0-.246-.594L33.7 2.246A.841.841 0 0 0 33.1 2H6.2A4.208 4.208 0 0 0 2 6.2v42.036a4.208 4.208 0 0 0 4.2 4.2h30.267a4.208 4.208 0 0 0 4.2-4.2v-3.362h-1.678zM33.945 7.885V4.87L37.8 8.725h-3.014a.841.841 0 0 1-.841-.84z" class="cls-1" transform="translate(-2 -2)"/>
    <path id="Path_16" d="M56.336 28.9a4.208 4.208 0 0 0-5.944 0L35.53 43.758a.841.841 0 0 0-.229.429l-.545 2.723-1.6 1.6a2.522 2.522 0 1 0 3.566 3.567l1.6-1.6 2.723-.545a.841.841 0 0 0 .429-.23l14.862-14.861a4.208 4.208 0 0 0 0-5.943zM36.443 47.049l.4-1.982 3.326 3.326-1.981.4zm1.464-3.29l10.106-10.107 1.19 1.189L39.1 44.947zm2.378 2.377L50.392 36.03l1.189 1.19-10.106 10.1zM49.2 32.463l.594-.594 3.567 3.567-.6.6zM35.529 50.891a.86.86 0 0 1-1.188 0 .841.841 0 0 1 0-1.19l1.189-1.189 1.19 1.19zm19.618-17.238l-.594.594-3.567-3.567.594-.594a2.522 2.522 0 1 1 3.567 3.567z" class="cls-1" transform="translate(-6.846 -6.09)"/>
    <path id="Path_17" d="M37.184 28.309a.847.847 0 0 0 0-1.194l-8.323-8.323a.869.869 0 0 0-1.185 0l-2.2 2.2-1.286.252-2.455-2.455a.868.868 0 0 0-.6-.244h-3.22l-2.125-2.132a.847.847 0 0 0-1.194 0l-8.323 8.323a.847.847 0 0 0 0 1.194l6.053 6.053a2.5 2.5 0 0 0 2.144 3.59 2.443 2.443 0 0 0 .723 1.648 2.492 2.492 0 0 0 1.648.731 2.508 2.508 0 0 0 2.379 2.378 2.522 2.522 0 0 0 4.3 1.648l.891.891a2.517 2.517 0 0 0 3.564 0 2.446 2.446 0 0 0 .723-1.656 2.475 2.475 0 0 0 2.379-2.371 2.491 2.491 0 0 0 2.379-2.379 2.516 2.516 0 0 0 1.656-4.3l-.891-.891zM8.056 25.333l7.137-7.133 1.185 1.185-7.129 7.142zm2.379 2.379l7.482-7.482h2.875l6.582 6.591a.822.822 0 0 1 0 1.185.852.852 0 0 1-1.185 0l-3.564-3.564a.872.872 0 0 0-1.194 0 2.577 2.577 0 0 1-3.564 0l-1.185 1.185a4.267 4.267 0 0 0 1.034.748l-4.3 4.313zm12.778 10.4a2.529 2.529 0 0 0-.639 2.43l-.252.244a.817.817 0 0 1-.6.244.8.8 0 0 1-.588-.244.835.835 0 0 1-.008-1.177.008.008 0 0 0 .008-.008l2.379-2.371v-.01l-1.194-1.185-2.379 2.379c-.008 0-.008 0-.008.008a.868.868 0 0 1-1.177-.008.852.852 0 0 1 0-1.194l2.379-2.379-1.185-1.185-2.379 2.379a.844.844 0 1 1-1.194-1.194l2.379-2.371-1.185-1.194-2.379 2.379a.863.863 0 0 1-1.194 0 .841.841 0 0 1 0-1.185l5.607-5.616c.017 0 .025.008.042.008a4.16 4.16 0 0 0 2.32-.7L25 29.2a2.585 2.585 0 0 0 3.564 0 2.522 2.522 0 0 0 .05-3.514l4.413 4.405-.252.244a2.528 2.528 0 0 0-2.43.647 2.443 2.443 0 0 0-.723 1.648 2.489 2.489 0 0 0-2.379 2.4 2.444 2.444 0 0 0-2.379 2.354 2.561 2.561 0 0 0-1.656.723zm3.573 3.573a.872.872 0 0 1-1.194 0l-1.186-1.195a.841.841 0 1 1 1.186-1.19l1.194 1.185a.847.847 0 0 1 0 1.194zm2.379-2.385a.847.847 0 0 1-1.194 0l-1.185-1.194a.838.838 0 1 1 1.185-1.185l1.194 1.185a.852.852 0 0 1 0 1.194zm2.371-2.379a.852.852 0 0 1-1.185 0l-1.185-1.194a.807.807 0 0 1-.252-.588.847.847 0 0 1 .841-.841.861.861 0 0 1 .6.244l1.185 1.194a.841.841 0 0 1-.005 1.189zm2.379-2.379a.841.841 0 0 1-1.185 0l-1.194-1.185a.847.847 0 0 1 0-1.194.876.876 0 0 1 .6-.244.861.861 0 0 1 .6.244l1.185 1.194a.822.822 0 0 1 0 1.185zM27.08 21.768l1.194-1.194 7.126 7.138-1.183 1.188z" class="cls-1" transform="translate(-2.642 -4.257)"/>
    <path id="Path_18" d="M21 54h8.407v1.681H21z" class="cls-1" transform="translate(-5.027 -10.286)"/>
</svg>
