<svg xmlns="http://www.w3.org/2000/svg" width="22.094" height="24.854" viewBox="0 0 22.094 24.854">
  <path id="Icon_awesome-hospital" data-name="Icon awesome-hospital" d="M20.872,23.854H0v-.932a.559.559,0,0,1,.559-.559h.932V5.591A1.118,1.118,0,0,1,2.609,4.473h4.1V1.118A1.118,1.118,0,0,1,7.827,0h5.218a1.118,1.118,0,0,1,1.118,1.118V4.473h4.1a1.118,1.118,0,0,1,1.118,1.118V22.363h.932ZM14.35,8.945H12.486a.559.559,0,0,0-.559.559v1.864a.559.559,0,0,0,.559.559H14.35a.559.559,0,0,0,.559-.559V9.5A.559.559,0,0,0,14.35,8.945ZM6.523,11.927H8.386a.559.559,0,0,0,.559-.559V9.5a.559.559,0,0,0-.559-.559H6.523a.559.559,0,0,0-.559.559v1.864A.559.559,0,0,0,6.523,11.927Zm4.845,5.964H9.5a.559.559,0,0,0-.559.559v3.914h2.982V18.45A.559.559,0,0,0,11.368,17.891Zm2.982-4.473H12.486a.559.559,0,0,0-.559.559v1.864a.559.559,0,0,0,.559.559H14.35a.559.559,0,0,0,.559-.559V13.977A.559.559,0,0,0,14.35,13.418Zm-5.4.559a.559.559,0,0,0-.559-.559H6.523a.559.559,0,0,0-.559.559v1.864a.559.559,0,0,0,.559.559H8.386a.559.559,0,0,0,.559-.559Z" transform="translate(0.5 0.5)" fill="none" stroke="#909090" stroke-width="1"/>
</svg>
