<svg xmlns="http://www.w3.org/2000/svg" width="27.528" height="27.528" viewBox="0 0 27.528 27.528">
    <path d="M0 19.015V19v-.03-.015-.026-.019l.005-.02c0-.008 0-.016.007-.024l.006-.015c0-.009.007-.018.011-.027L4.755 8.435v-1.36h-.03a.923.923 0 0 1-.925-.921v-.071a.918.918 0 0 1 .775-.91l7.787-1.257v-.8a1.873 1.873 0 1 1 2.794 0v.755l7.792 1.3a.919.919 0 0 1 .77.909v.073a.923.923 0 0 1-.922.922h-.03v1.36l4.717 10.376c0 .009.007.018.011.027l.006.015c0 .008 0 .016.007.024l.005.02v.09c0 .01 0 0 0 0v.034c-.028 1.834-2.3 3.266-5.2 3.266s-5.173-1.432-5.2-3.266v-.015-.019c0-.007 0 0 0 0v-.03-.015-.026-.019l.005-.02c0-.008 0-.016.007-.024l.006-.015c0-.009.007-.018.011-.027l4.738-10.376v-1.36H15.16v9.688a.922.922 0 0 1 .476.806v6.569l2.825.883a1.391 1.391 0 0 1 .98 1.334v.728a.446.446 0 0 1-.446.446H8.531a.446.446 0 0 1-.446-.446v-.728a1.391 1.391 0 0 1 .98-1.334l2.825-.883v-6.569a.922.922 0 0 1 .476-.806V7.075H5.647v1.36l4.717 10.376c0 .009.007.018.011.027l.006.015c0 .008 0 .016.007.024l.005.02v.09c0 .01 0 0 0 0v.034C10.375 20.864 8.1 22.3 5.2 22.3S.028 20.864 0 19.03v-.015zM22.325 9.61l-4.064 8.94h8.128zm0 11.795c2.065 0 3.846-.861 4.233-1.962h-8.466c.386 1.1 2.168 1.957 4.233 1.957zm-9.543-3.835v6.45h1.962v-6.451a.03.03 0 0 0-.03-.03h-1.9a.03.03 0 0 0-.032.03zm1.486-.922V3.676a1.863 1.863 0 0 1-1.011 0v12.972zM13.763.892a.981.981 0 1 0 .981.981.982.982 0 0 0-.981-.981zM22.8 6.183a.03.03 0 0 0 .03-.03v-.072a.03.03 0 0 0-.025-.029L15.16 4.778v1.405zM8.977 26.355v.282h9.572v-.282a.5.5 0 0 0-.355-.482l-3.073-.96H12.4l-3.073.96a.5.5 0 0 0-.35.482zM12.366 4.82L4.721 6.054a.03.03 0 0 0-.025.029v.071a.03.03 0 0 0 .03.03h7.64zM5.2 9.61l-4.063 8.94h8.128zm0 11.79c2.065 0 3.846-.861 4.233-1.962H.968C1.355 20.543 3.137 21.4 5.2 21.4z" transform="translate(.001)"/>
</svg>
